<svg xmlns="http://www.w3.org/2000/svg" width="13.888" height="13.796" viewBox="0 0 13.888 13.796"><g transform="translate(-11 -8.102)"><path d="M13.624,13.092l5.221-5.217a.982.982,0,0,0,0-1.392.994.994,0,0,0-1.4,0l-5.915,5.911a.984.984,0,0,0-.029,1.36l5.94,5.952a.986.986,0,0,0,1.4-1.392Z" transform="translate(-0.246 1.906)" fill="#444"/><path d="M13.624,13.092l5.221-5.217a.982.982,0,0,0,0-1.392.994.994,0,0,0-1.4,0l-5.915,5.911a.984.984,0,0,0-.029,1.36l5.94,5.952a.986.986,0,0,0,1.4-1.392Z" transform="translate(5.754 1.906)" fill="#444"/></g></svg>