<svg xmlns="http://www.w3.org/2000/svg" width="19.651" height="19.651" viewBox="0 0 19.651 19.651"><path d="M9.825.563a9.825,9.825,0,1,0,9.825,9.825A9.824,9.824,0,0,0,9.825.563Zm0,3.8A3.486,3.486,0,1,1,6.339,7.852,3.486,3.486,0,0,1,9.825,4.366Zm0,13.629a7.592,7.592,0,0,1-5.8-2.7,4.417,4.417,0,0,1,3.9-2.369.969.969,0,0,1,.281.044,5.245,5.245,0,0,0,1.62.273,5.226,5.226,0,0,0,1.62-.273.969.969,0,0,1,.281-.044,4.417,4.417,0,0,1,3.9,2.369A7.592,7.592,0,0,1,9.825,17.994Z" transform="translate(0 -0.563)" fill="#444"/></svg>